<mxfile host="app.diagrams.net" modified="2023-06-05T14:05:38.135Z" agent="Mozilla/5.0 (Macintosh; Intel Mac OS X 10_15_7) AppleWebKit/537.36 (KHTML, like Gecko) Chrome/114.0.0.0 Safari/537.36 Edg/114.0.1823.37" etag="s0X7bDOTTtkhbdnFEhju" version="21.2.9" type="github">
  <diagram name="第 1 页" id="iKk2psKwiYw-uZU4sWZw">
    <mxGraphModel dx="1290" dy="582" grid="1" gridSize="10" guides="1" tooltips="1" connect="1" arrows="1" fold="1" page="1" pageScale="1" pageWidth="1169" pageHeight="827" math="0" shadow="0">
      <root>
        <mxCell id="0" />
        <mxCell id="1" parent="0" />
        <mxCell id="8J6o9mxAqtTVTh7oCCAe-7" value="" style="rounded=1;whiteSpace=wrap;fontSize=21;html=1;" parent="1" vertex="1">
          <mxGeometry x="20" y="95" width="210" height="430" as="geometry" />
        </mxCell>
        <mxCell id="8J6o9mxAqtTVTh7oCCAe-1" value="GUI" style="rounded=0;whiteSpace=wrap;fontFamily=Times New Roman;fontSize=21;html=1;" parent="1" vertex="1">
          <mxGeometry x="65" y="120" width="120" height="60" as="geometry" />
        </mxCell>
        <mxCell id="8J6o9mxAqtTVTh7oCCAe-2" value="Function" style="rounded=0;whiteSpace=wrap;fontSize=21;fontFamily=Times New Roman;html=1;" parent="1" vertex="1">
          <mxGeometry x="65" y="280" width="120" height="60" as="geometry" />
        </mxCell>
        <mxCell id="8J6o9mxAqtTVTh7oCCAe-3" value="" style="shadow=0;dashed=0;align=center;verticalAlign=middle;shape=mxgraph.arrows2.arrow;dy=0.6;dx=40;direction=north;notch=0;fontSize=21;html=1;" parent="1" vertex="1">
          <mxGeometry x="90" y="180" width="70" height="100" as="geometry" />
        </mxCell>
        <mxCell id="8J6o9mxAqtTVTh7oCCAe-4" value="" style="shadow=0;dashed=0;align=center;verticalAlign=middle;shape=mxgraph.arrows2.arrow;dy=0.6;dx=40;direction=south;notch=0;fontSize=21;html=1;" parent="1" vertex="1">
          <mxGeometry x="90" y="340" width="70" height="100" as="geometry" />
        </mxCell>
        <mxCell id="8J6o9mxAqtTVTh7oCCAe-5" value="Data" style="rounded=0;whiteSpace=wrap;fontFamily=Times New Roman;fontSize=21;html=1;" parent="1" vertex="1">
          <mxGeometry x="65" y="440" width="120" height="60" as="geometry" />
        </mxCell>
        <mxCell id="8J6o9mxAqtTVTh7oCCAe-9" value="" style="shadow=0;dashed=0;align=center;verticalAlign=middle;shape=mxgraph.arrows2.twoWayArrow;dy=0.6;dx=35;fontSize=21;html=1;" parent="1" vertex="1">
          <mxGeometry x="185" y="120" width="260" height="60" as="geometry" />
        </mxCell>
        <mxCell id="8J6o9mxAqtTVTh7oCCAe-10" value="Qt/PySide6" style="rounded=0;whiteSpace=wrap;fontFamily=Times New Roman;verticalAlign=middle;fontSize=21;html=1;" parent="1" vertex="1">
          <mxGeometry x="445" y="120" width="295" height="60" as="geometry" />
        </mxCell>
        <mxCell id="8J6o9mxAqtTVTh7oCCAe-11" value="" style="shadow=0;dashed=0;align=center;verticalAlign=middle;shape=mxgraph.arrows2.twoWayArrow;dy=0.6;dx=35;fontSize=21;html=1;" parent="1" vertex="1">
          <mxGeometry x="185" y="280" width="260" height="60" as="geometry" />
        </mxCell>
        <mxCell id="8J6o9mxAqtTVTh7oCCAe-12" value="&lt;font face=&quot;SimSong&quot;&gt;自动标注/&lt;/font&gt;YOLOv8&lt;font face=&quot;SimSong&quot;&gt;、手动标注&lt;/font&gt;" style="rounded=0;whiteSpace=wrap;fontFamily=Times New Roman;fontSize=21;html=1;" parent="1" vertex="1">
          <mxGeometry x="445" y="280" width="295" height="60" as="geometry" />
        </mxCell>
        <mxCell id="8J6o9mxAqtTVTh7oCCAe-14" value="" style="shadow=0;dashed=0;align=center;verticalAlign=middle;shape=mxgraph.arrows2.twoWayArrow;dy=0.6;dx=35;fontSize=21;html=1;" parent="1" vertex="1">
          <mxGeometry x="185" y="440" width="260" height="60" as="geometry" />
        </mxCell>
        <mxCell id="8J6o9mxAqtTVTh7oCCAe-15" value="图像数据管理/标注数据管理" style="rounded=0;whiteSpace=wrap;fontFamily=SimSong;fontSize=21;html=1;" parent="1" vertex="1">
          <mxGeometry x="445" y="440" width="295" height="60" as="geometry" />
        </mxCell>
      </root>
    </mxGraphModel>
  </diagram>
</mxfile>
